#!OML:ASF H:\Dans Jumps\Project 1\Capture day 1\Session 1\subject.ASF
:FULLY-SPECIFIED
:DEGREES
599
root 0.593574 17.7183 2.35727 5.98528 -1.04003 -1.54785
lowerback -0.293219 -0.331786 -0.402021
upperback 3.26833 -0.480708 1.52626
thorax 3.5402 -0.276832 1.77981
lowerneck -11.9391 0.104925 -1.8964
upperneck 36.8312 0.137471 1.4046
head 14.722 -0.0239201 0.939905
rclavicle 3.27995e-015 -2.98177e-015
rhumerus -22.7416 -8.06421 -83.9794
rradius 31.309
rwrist 25.4623
rhand -19.4516 -26.1815
rfingers 7.12502
rthumb 6.86918 -56.0501
lclavicle 3.27995e-015 -2.98177e-015
lhumerus -17.052 -5.80495 89.1013
lradius 24.3238
lwrist 9.82275
lhand -25.6078 -3.9083
lfingers 7.12502
lthumb 0.924584 26.0694
rfemur -16.0218 -2.38643 19.6697
rtibia 22.3619
rfoot -10.9654 -2.28965
rtoes 13.1049
lfemur -14.4161 8.16346 -17.9219
ltibia 19.5992
lfoot -8.51642 4.52752
ltoes -1.49898
600
root 0.594795 17.7185 2.36204 5.98328 -1.05586 -1.54855
lowerback -0.329967 -0.321974 -0.388482
upperback 3.27572 -0.467955 1.51954
thorax 3.568 -0.270144 1.76556
lowerneck -11.9559 0.100791 -1.89407
upperneck 36.841 0.13005 1.40753
head 14.7307 -0.0263527 0.939766
rclavicle 3.47873e-016 -2.18663e-015
rhumerus -22.8598 -8.43746 -83.8373
rradius 30.9278
rwrist 25.7756
rhand -19.4122 -26.1662
rfingers 7.12502
rthumb 6.90722 -56.0335
lclavicle 3.47873e-016 -2.18663e-015
lhumerus -17.2347 -5.59812 89.122
lradius 24.018
lwrist 9.57416
lhand -25.5056 -3.70114
lfingers 7.12502
lthumb 1.02328 26.2762
rfemur -15.9952 -2.37671 19.6648
rtibia 22.3462
rfoot -10.9738 -2.28793
rtoes 13.0972
lfemur -14.3807 8.16393 -17.9232
ltibia 19.5757
lfoot -8.51989 4.54433
ltoes -1.49875
601
root 0.595942 17.7187 2.3667 5.98259 -1.06942 -1.55262
lowerback -0.365192 -0.312181 -0.37204
upperback 3.2824 -0.455342 1.51458
thorax 3.59421 -0.263451 1.75152
lowerneck -11.9714 0.0981967 -1.88781
upperneck 36.8517 0.126243 1.40398
head 14.7395 -0.0275631 0.936804
rclavicle 9.69075e-015 -3.77691e-015
rhumerus -22.9849 -8.82342 -83.6851
rradius 30.541
rwrist 26.1034
rhand -19.3569 -26.1622
rfingers 7.12502
rthumb 6.96067 -56.0278
lclavicle 9.69075e-015 -3.77691e-015
lhumerus -17.4272 -5.37148 89.1398
lradius 23.7081
lwrist 9.2939
lhand -25.4195 -3.53322
lfingers 7.12502
lthumb 1.10638 26.4437
rfemur -15.9694 -2.36861 19.6639
rtibia 22.3287
rfoot -10.9801 -2.28559
rtoes 13.0754
lfemur -14.3507 8.16842 -17.9212
ltibia 19.5581
lfoot -8.52576 4.55716
ltoes -1.51094
602
root 0.596967 17.7189 2.37121 5.98196 -1.07957 -1.56228
lowerback -0.398863 -0.303244 -0.35054
upperback 3.29079 -0.444074 1.51147
thorax 3.62136 -0.257317 1.73652
lowerneck -11.9908 0.0974211 -1.87915
upperneck 36.8628 0.125452 1.39808
head 14.7494 -0.0274599 0.932936
rclavicle -5.51627e-015 -1.98785e-016
rhumerus -23.1143 -9.22367 -83.525
rradius 30.1529
rwrist 26.4466
rhand -19.3112 -26.151
rfingers 7.12502
rthumb 7.00477 -56.0151
lclavicle -5.51627e-015 -1.98785e-016
lhumerus -17.6183 -5.14202 89.1533
lradius 23.3854
lwrist 9.00587
lhand -25.3403 -3.3864
lfingers 7.12502
lthumb 1.18292 26.5901
rfemur -15.9435 -2.35828 19.6697
rtibia 22.31
rfoot -10.9855 -2.28771
rtoes 13.0517
lfemur -14.3254 8.17471 -17.9127
ltibia 19.5461
lfoot -8.53363 4.56604
ltoes -1.52949
603
root 0.597935 17.7191 2.37554 5.98071 -1.08704 -1.57082
lowerback -0.427101 -0.295385 -0.330848
upperback 3.29711 -0.434193 1.50927
thorax 3.64336 -0.251902 1.72345
lowerneck -12.0038 0.0986126 -1.87142
upperneck 36.8755 0.128521 1.39009
head 14.7585 -0.0261345 0.928957
rclavicle -9.19379e-015 1.59028e-014
rhumerus -23.2525 -9.63293 -83.3552
rradius 29.7621
rwrist 26.7982
rhand -19.2608 -26.1447
rfingers 7.12502
rthumb 7.05344 -56.0072
lclavicle -9.19379e-015 1.59028e-014
lhumerus -17.8175 -4.90483 89.1641
lradius 23.0518
lwrist 8.70521
lhand -25.2732 -3.28928
lfingers 7.12502
lthumb 1.24775 26.6868
rfemur -15.9174 -2.35059 19.6744
rtibia 22.2915
rfoot -10.9901 -2.29031
rtoes 13.0323
lfemur -14.3028 8.18138 -17.9053
ltibia 19.5389
lfoot -8.54545 4.57188
ltoes -1.54613
604
root 0.598798 17.7192 2.37959 5.97922 -1.09191 -1.57795
lowerback -0.448877 -0.288394 -0.314052
upperback 3.30078 -0.425373 1.50784
thorax 3.65905 -0.247067 1.71278
lowerneck -12.005 0.101641 -1.8664
upperneck 36.8887 0.134759 1.38245
head 14.7649 -0.0237997 0.92605
rclavicle 5.76476e-015 5.96354e-015
rhumerus -23.3962 -10.0605 -83.1744
rradius 29.3639
rwrist 27.1686
rhand -19.2185 -26.1337
rfingers 7.12502
rthumb 7.09428 -55.9948
lclavicle 5.76476e-015 5.96354e-015
lhumerus -18.0242 -4.65777 89.1707
lradius 22.7103
lwrist 8.39223
lhand -25.208 -3.2067
lfingers 7.12502
lthumb 1.31069 26.769
rfemur -15.8927 -2.34381 19.6781
rtibia 22.2742
rfoot -10.9947 -2.29413
rtoes 13.024
lfemur -14.2829 8.187 -17.8989
ltibia 19.535
lfoot -8.55862 4.57565
ltoes -1.55492
605
root 0.599583 17.7194 2.38348 5.97804 -1.09239 -1.58452
lowerback -0.466903 -0.282418 -0.299085
upperback 3.30267 -0.417867 1.5076
thorax 3.67084 -0.242932 1.70435
lowerneck -11.9978 0.105508 -1.8622
upperneck 36.9006 0.14284 1.37348
head 14.7688 -0.0209607 0.922971
rclavicle 2.78299e-015 9.93923e-016
rhumerus -23.5456 -10.5036 -82.9824
rradius 28.9617
rwrist 27.5533
rhand -19.1772 -26.1305
rfingers 7.12502
rthumb 7.13414 -55.9903
lclavicle 2.78299e-015 9.93923e-016
lhumerus -18.2426 -4.39035 89.1722
lradius 22.3735
lwrist 8.05485
lhand -25.1386 -3.12341
lfingers 7.12502
lthumb 1.37775 26.8519
rfemur -15.8699 -2.33981 19.6817
rtibia 22.2602
rfoot -11.0009 -2.29965
rtoes 13.0231
lfemur -14.2646 8.19148 -17.8929
ltibia 19.5313
lfoot -8.57185 4.57578
ltoes -1.56081
606
root 0.60028 17.7195 2.38716 5.97818 -1.08897 -1.58685
lowerback -0.483254 -0.277679 -0.290105
upperback 3.30489 -0.411868 1.50747
thorax 3.68212 -0.23973 1.69934
lowerneck -11.9923 0.109465 -1.85929
upperneck 36.9119 0.151434 1.36463
head 14.7728 -0.0180533 0.920257
rclavicle 5.2181e-015 1.61016e-014
rhumerus -23.6963 -10.9584 -82.7813
rradius 28.5579
rwrist 27.9534
rhand -19.1473 -26.1332
rfingers 7.12502
rthumb 7.16293 -55.992
lclavicle 5.2181e-015 1.61016e-014
lhumerus -18.4654 -4.11205 89.1689
lradius 22.039
lwrist 7.69863
lhand -25.0783 -3.06937
lfingers 7.12502
lthumb 1.43592 26.9055
rfemur -15.8509 -2.33938 19.6813
rtibia 22.2501
rfoot -11.0085 -2.30679
rtoes 13.0157
lfemur -14.249 8.19467 -17.8919
ltibia 19.526
lfoot -8.58366 4.57326
ltoes -1.56944
607
root 0.600937 17.7196 2.39063 5.98026 -1.07959 -1.58484
lowerback -0.497983 -0.274089 -0.285426
upperback 3.30605 -0.407252 1.50664
thorax 3.69146 -0.237319 1.69599
lowerneck -11.9829 0.110831 -1.85404
upperneck 36.9196 0.156605 1.3526
head 14.7742 -0.0166774 0.915207
rclavicle 1.49089e-015 -3.97569e-015
rhumerus -23.8517 -11.4207 -82.5717
rradius 28.1579
rwrist 28.3607
rhand -19.1084 -26.1545
rfingers 7.12502
rthumb 7.20055 -56.012
lclavicle 1.49089e-015 -3.97569e-015
lhumerus -18.6964 -3.83904 89.1629
lradius 21.7107
lwrist 7.33822
lhand -25.0305 -3.02757
lfingers 7.12502
lthumb 1.48214 26.947
rfemur -15.8359 -2.34543 19.6766
rtibia 22.2438
rfoot -11.0187 -2.31281
rtoes 13.0043
lfemur -14.2356 8.19498 -17.8961
ltibia 19.5176
lfoot -8.59311 4.56742
ltoes -1.58515
608
root 0.601507 17.7197 2.394 5.98387 -1.06414 -1.58082
lowerback -0.516039 -0.272515 -0.28388
upperback 3.31296 -0.405322 1.5053
thorax 3.70877 -0.236399 1.69376
lowerneck -11.9971 0.110518 -1.84079
upperneck 36.9256 0.158502 1.33774
head 14.7804 -0.0159337 0.907133
rclavicle -5.71506e-015 -1.17283e-014
rhumerus -24.0005 -11.8842 -82.3595
rradius 27.7658
rwrist 28.7739
rhand -19.075 -26.1738
rfingers 7.12502
rthumb 7.23271 -56.0302
lclavicle -5.71506e-015 -1.17283e-014
lhumerus -18.9141 -3.59921 89.156
lradius 21.3669
lwrist 6.9747
lhand -25.0246 -3.05367
lfingers 7.12502
lthumb 1.48784 26.9209
rfemur -15.8237 -2.35551 19.6702
rtibia 22.2408
rfoot -11.0303 -2.32152
rtoes 12.9977
lfemur -14.2244 8.19393 -17.9028
ltibia 19.5066
lfoot -8.60015 4.55685
ltoes -1.60502
609
root 0.602021 17.7198 2.3973 5.9879 -1.04393 -1.57388
lowerback -0.532493 -0.272818 -0.28576
upperback 3.31928 -0.405791 1.50387
thorax 3.72465 -0.236767 1.69328
lowerneck -12.0085 0.109579 -1.82239
upperneck 36.9286 0.16008 1.31706
head 14.7845 -0.01538 0.89562
rclavicle -5.51627e-015 -6.75868e-015
rhumerus -24.1618 -12.3277 -82.1449
rradius 27.3963
rwrist 29.1719
rhand -19.0347 -26.2025
rfingers 7.12502
rthumb 7.27168 -56.0575
lclavicle -5.51627e-015 -6.75868e-015
lhumerus -19.1377 -3.35464 89.145
lradius 21.0276
lwrist 6.5991
lhand -25.0376 -3.10417
lfingers 7.12502
lthumb 1.47525 26.8705
rfemur -15.8121 -2.36958 19.6609
rtibia 22.2396
rfoot -11.0434 -2.33005
rtoes 12.9882
lfemur -14.2139 8.1925 -17.9129
ltibia 19.4945
lfoot -8.60703 4.54233
ltoes -1.62525
